HIERARCHY
ROOT base
{
	OFFSET 0.000000 0.000000 0.000000
	CHANNELS 6 Xposition Yposition Zposition Xrotation Yrotation Zrotation
	JOINT torso
	{
		OFFSET 0.000000 0.000000 0.490888
		CHANNELS 3 Xrotation Yrotation Zrotation
		JOINT head
		{
			OFFSET 0.000000 0.000000 0.372984
			CHANNELS 3 Xrotation Yrotation Zrotation
			End Site
			{
				OFFSET 0.000000 -0.000000 0.184769
			}
		}
		JOINT arm.upper.left
		{
			OFFSET 0.163516 0.000000 0.306886
			CHANNELS 6 Xposition Yposition Zposition Xrotation Yrotation Zrotation
			JOINT arm.lower.left
			{
				OFFSET 0.011593 0.000000 -0.206361
				CHANNELS 3 Xrotation Yrotation Zrotation
				End Site
				{
					OFFSET 0.012971 0.000000 -0.197808
				}
			}
		}
		JOINT arm.upper.right
		{
			OFFSET -0.163516 0.000000 0.306886
			CHANNELS 6 Xposition Yposition Zposition Xrotation Yrotation Zrotation
			JOINT arm.lower.right
			{
				OFFSET -0.011593 0.000000 -0.206361
				CHANNELS 3 Xrotation Yrotation Zrotation
				End Site
				{
					OFFSET -0.012971 0.000000 -0.197808
				}
			}
		}
	}
	JOINT leg.upper.left
	{
		OFFSET 0.068166 0.000000 0.503791
		CHANNELS 6 Xposition Yposition Zposition Xrotation Yrotation Zrotation
		JOINT leg.lower.left
		{
			OFFSET 0.008766 0.000000 -0.256595
			CHANNELS 3 Xrotation Yrotation Zrotation
			End Site
			{
				OFFSET -0.001038 0.000000 -0.245963
			}
		}
	}
	JOINT leg.upper.right
	{
		OFFSET -0.068166 0.000000 0.503791
		CHANNELS 6 Xposition Yposition Zposition Xrotation Yrotation Zrotation
		JOINT leg.lower.right
		{
			OFFSET -0.008766 0.000000 -0.256595
			CHANNELS 3 Xrotation Yrotation Zrotation
			End Site
			{
				OFFSET 0.001038 0.000000 -0.245963
			}
		}
	}
}
MOTION
Frames: 20
Frame Time: 0.041667
0.000000 0.000000 0.000000 -0.000000 0.000000 -0.000000 -0.000000 0.000000 -0.000000 0.000000 0.000000 0.000000 0.163516 0.000000 0.306886 12.656184 -0.177277 0.755973 0.291672 0.501634 0.040783 -0.163516 0.000000 0.306886 -15.811365 0.199338 0.950272 -0.290976 -0.507858 0.047069 0.068166 0.000000 0.503791 -26.214109 0.172021 -1.154290 20.685450 0.469758 -0.319945 -0.068166 0.000000 0.503791 17.111598 0.576192 -0.777412 0.348136 -1.273846 -0.070034 
0.000000 0.000000 0.000000 -0.000000 0.000000 -0.000000 -0.000000 0.000000 -0.000000 0.000000 0.000000 0.000000 0.163516 0.000000 0.306886 11.523225 -0.155631 0.685657 0.264002 0.431425 0.037215 -0.163516 0.000000 0.306886 -14.257424 0.178392 0.853241 -0.263726 -0.438481 0.042679 0.068166 0.000000 0.503791 -24.984058 0.145489 -1.101572 19.381550 0.452480 -0.305260 -0.068166 0.000000 0.503791 15.456699 0.564849 -0.698387 4.657267 -1.203474 0.050136 
0.000000 0.000000 0.000000 -0.000000 0.000000 -0.000000 -0.000000 0.000000 -0.000000 0.000000 0.000000 0.000000 0.163516 0.000000 0.306886 8.172700 -0.095775 0.481246 0.183664 0.248310 0.026502 -0.163516 0.000000 0.306886 -9.794809 0.115231 0.579162 -0.184274 -0.256478 0.029792 0.068166 0.000000 0.503791 -21.166094 0.064083 -0.937850 15.676208 0.409820 -0.264785 -0.068166 0.000000 0.503791 10.500243 0.520681 -0.463253 16.029911 -0.968712 0.337871 
0.000000 0.000000 0.000000 -0.000000 0.000000 -0.000000 -0.000000 0.000000 -0.000000 0.000000 0.000000 0.000000 0.163516 0.000000 0.306886 3.776252 -0.028669 0.219885 0.081843 0.066621 0.012213 -0.163516 0.000000 0.306886 -4.261183 0.036194 0.248515 -0.082795 -0.073033 0.013249 0.068166 0.000000 0.503791 -15.727639 -0.047569 -0.703197 11.183814 0.375143 -0.216416 -0.068166 0.000000 0.503791 3.870347 0.438531 -0.153916 27.397513 -0.661728 0.568882 
0.000000 0.000000 0.000000 -0.000000 0.000000 -0.000000 -0.000000 0.000000 -0.000000 0.000000 0.000000 0.000000 0.163516 0.000000 0.306886 -0.000000 0.000000 -0.000000 -0.000000 0.000001 -0.000000 -0.163516 0.000000 0.306886 0.000000 0.000003 -0.000000 -0.000000 -0.000001 -0.000000 0.068166 0.000000 0.503791 -10.453681 -0.155819 -0.475727 7.901823 0.381063 -0.176758 -0.068166 0.000000 0.503791 -1.924365 0.350564 0.111466 31.701428 -0.494951 0.628541 
0.000000 0.000000 0.000000 -0.000000 0.000000 -0.000000 -0.000000 0.000000 -0.000000 0.000000 0.000000 0.000000 0.163516 0.000000 0.306886 -3.664639 -0.022370 -0.213241 -0.072151 0.048199 -0.011456 -0.163516 0.000000 0.306886 3.441324 0.017074 -0.200042 0.073378 -0.041452 -0.011090 0.068166 0.000000 0.503791 -4.536568 -0.280075 -0.220211 5.543898 0.482313 -0.134081 -0.068166 0.000000 0.503791 -7.609299 0.256168 0.368877 31.103244 -0.453222 0.595329 
0.000000 0.000000 0.000000 -0.000000 0.000000 -0.000000 -0.000000 0.000000 -0.000000 0.000000 0.000000 0.000000 0.163516 0.000000 0.306886 -8.038704 -0.078495 -0.472344 -0.153555 0.175913 -0.024683 -0.163516 0.000000 0.306886 7.035739 0.062894 -0.412134 0.155167 -0.166467 -0.022781 0.068166 0.000000 0.503791 3.074069 -0.418550 0.119499 3.342845 0.710369 -0.071654 -0.068166 0.000000 0.503791 -14.385020 0.123422 0.667453 29.254100 -0.446171 0.531139 
0.000000 0.000000 0.000000 -0.000000 0.000000 -0.000000 -0.000000 0.000000 -0.000000 0.000000 0.000000 0.000000 0.163516 -0.000000 0.306886 -12.165314 -0.141137 -0.723032 -0.227493 0.337883 -0.036749 -0.163516 0.000000 0.306886 10.122912 0.119146 -0.598682 0.228835 -0.329060 -0.032746 0.068166 0.000000 0.503791 10.503298 -0.519330 0.463691 1.629252 0.988089 -0.001241 -0.068166 0.000000 0.503791 -20.710228 -0.024486 0.934082 26.433397 -0.460730 0.448796 
0.000000 0.000000 0.000000 -0.000000 0.000000 -0.000000 -0.000000 0.000000 -0.000000 0.000000 0.000000 0.000000 0.163516 0.000000 0.306886 -14.914316 -0.184595 -0.893797 -0.275535 0.463403 -0.044564 -0.163516 0.000000 0.306886 12.051873 0.161982 -0.718006 0.276434 -0.456338 -0.038882 0.068166 0.000000 0.503791 15.500660 -0.565514 0.700514 0.640553 1.199539 0.051694 -0.068166 0.000000 0.503791 -24.868546 -0.134452 1.101524 23.364431 -0.473751 0.372218 
0.000000 0.000000 0.000000 -0.000000 0.000000 -0.000000 -0.000000 0.000000 -0.000000 0.000000 0.000000 0.000000 0.163516 -0.000000 0.306886 -15.811367 -0.199335 -0.950272 -0.290978 0.507858 -0.047070 -0.163516 0.000000 0.306886 12.656185 0.177281 -0.755973 0.291671 -0.501634 -0.040784 0.068166 0.000000 0.503791 17.111601 -0.576191 0.777411 0.348134 1.273846 0.070033 -0.068166 0.000000 0.503791 -26.214109 -0.172019 1.154290 20.685452 -0.469758 0.319944 
0.000000 0.000000 0.000000 -0.000000 0.000000 -0.000000 -0.000000 0.000000 -0.000000 0.000000 0.000000 0.000000 0.163516 0.000000 0.306886 -14.863808 -0.185382 -0.890840 -0.274497 0.463332 -0.044409 -0.163516 0.000000 0.306886 11.988681 0.162772 -0.714294 0.275132 -0.456422 -0.038683 0.068166 0.000000 0.503791 16.086064 -0.568100 0.728475 3.110478 1.230689 -0.007729 -0.068166 0.000000 0.503791 -25.494028 -0.157716 1.122709 18.174387 -0.447317 0.284158 
0.000000 0.000000 0.000000 -0.000000 0.000000 -0.000000 -0.000000 0.000000 -0.000000 0.000000 0.000000 0.000000 0.163516 0.000000 0.306886 -11.993981 -0.143283 -0.713004 -0.223978 0.337649 -0.036217 -0.163516 0.000000 0.306886 9.908911 0.121359 -0.586146 0.224431 -0.329349 -0.032071 0.068166 0.000000 0.503791 12.972935 -0.541946 0.580600 10.959846 1.084390 -0.215927 -0.068166 0.000000 0.503791 -23.174449 -0.110354 1.022009 15.438693 -0.412952 0.253026 
0.000000 0.000000 0.000000 -0.000000 0.000000 -0.000000 -0.000000 0.000000 -0.000000 0.000000 0.000000 0.000000 0.163516 0.000000 0.306886 -7.771027 -0.080664 -0.456722 -0.148080 0.175548 -0.023846 -0.163516 0.000000 0.306886 6.701796 0.065240 -0.392653 0.148312 -0.166917 -0.021720 0.068166 0.000000 0.503791 8.174200 -0.491549 0.354712 21.095191 0.845696 -0.449941 -0.068166 0.000000 0.503791 -19.406630 -0.032714 0.859477 12.665817 -0.380878 0.226769 
0.000000 0.000000 0.000000 -0.000000 0.000000 -0.000000 -0.000000 0.000000 -0.000000 0.000000 0.000000 0.000000 0.163516 0.000000 0.306886 -3.438290 -0.023186 -0.200092 -0.067529 0.047892 -0.010743 -0.163516 0.000000 0.306886 3.158965 0.018020 -0.183640 0.067588 -0.041833 -0.010187 0.068166 0.000000 0.503791 2.849490 -0.422007 0.107483 28.941376 0.615339 -0.595076 -0.068166 0.000000 0.503791 -14.913009 0.060537 0.666414 10.108747 -0.367882 0.202579 
0.000000 0.000000 0.000000 -0.000000 0.000000 -0.000000 -0.000000 0.000000 -0.000000 0.000000 0.000000 0.000000 0.163516 0.000000 0.306886 -0.000000 0.000000 -0.000000 -0.000000 0.000001 -0.000000 -0.163516 0.000000 0.306886 0.000000 0.000003 -0.000000 -0.000000 -0.000001 -0.000000 0.068166 0.000000 0.503791 -1.924365 -0.350563 -0.111466 31.701428 0.494951 -0.628542 -0.068166 0.000000 0.503791 -10.453683 0.155820 0.475727 7.901825 -0.381064 0.176757 
0.000000 0.000000 0.000000 -0.000000 0.000000 -0.000000 -0.000000 0.000000 -0.000000 0.000000 0.000000 0.000000 0.163516 0.000000 0.306886 3.158831 -0.018017 0.183632 0.067589 0.041834 0.010187 -0.163516 0.000000 0.306886 -3.438047 0.023190 0.200078 -0.067529 -0.047892 0.010742 0.068166 0.000000 0.503791 -7.156993 -0.265906 -0.349389 30.722584 0.457668 -0.590715 -0.068166 0.000000 0.503791 -4.931712 0.275270 0.238563 5.777196 -0.479551 0.138548 
0.000000 0.000000 0.000000 -0.000000 0.000000 -0.000000 -0.000000 0.000000 -0.000000 0.000000 0.000000 0.000000 0.163516 0.000000 0.306886 6.701330 -0.065240 0.392627 0.148312 0.166918 0.021719 -0.163516 0.000000 0.306886 -7.770101 0.080675 0.456669 -0.148079 -0.175548 0.023845 0.068166 0.000000 0.503791 -13.797398 -0.138660 -0.643475 27.964507 0.448396 -0.512277 -0.068166 0.000000 0.503791 2.552890 0.414552 -0.094554 3.618600 -0.707311 0.077552 
0.000000 0.000000 0.000000 -0.000000 0.000000 -0.000000 -0.000000 0.000000 -0.000000 0.000000 0.000000 0.000000 0.163516 0.000000 0.306886 9.908345 -0.121362 0.586113 0.224431 0.329348 0.032069 -0.163516 0.000000 0.306886 -11.992794 0.143301 0.712937 -0.223979 -0.337648 0.036216 0.068166 0.000000 0.503791 -20.305985 0.012373 -0.918661 24.421276 0.456045 -0.417737 -0.068166 0.000000 0.503791 10.126280 0.517989 -0.445307 1.805983 -0.986298 0.005481 
0.000000 0.000000 0.000000 -0.000000 0.000000 -0.000000 -0.000000 0.000000 -0.000000 0.000000 0.000000 0.000000 0.163516 0.000000 0.306886 11.988445 -0.162771 0.714281 0.275130 0.456423 0.038682 -0.163516 0.000000 0.306887 -14.863291 0.185393 0.890811 -0.274498 -0.463332 0.044407 0.068166 0.000000 0.503791 -24.745029 0.130433 -1.097065 21.663577 0.465799 -0.345441 -0.068166 0.000000 0.503791 15.365837 0.565049 -0.693888 0.692748 -1.199052 -0.050341 
0.000000 0.000000 0.000000 -0.000000 0.000000 -0.000000 -0.000000 0.000000 -0.000000 0.000000 0.000000 0.000000 0.163516 0.000000 0.306886 12.656184 -0.177277 0.755973 0.291672 0.501634 0.040783 -0.163516 0.000000 0.306886 -15.811365 0.199338 0.950272 -0.290976 -0.507858 0.047069 0.068166 0.000000 0.503791 -26.214109 0.172021 -1.154290 20.685450 0.469758 -0.319945 -0.068166 0.000000 0.503791 17.111598 0.576192 -0.777412 0.348136 -1.273846 -0.070034 
